<?xml version="1.0" standalone="no"?>
<!DOCTYPE svg PUBLIC "-//W3C//DTD SVG 20010904//EN"
 "http://www.w3.org/TR/2001/REC-SVG-20010904/DTD/svg10.dtd">
<svg version="1.0" xmlns="http://www.w3.org/2000/svg"
 width="512.000000pt" height="512.000000pt" viewBox="0 0 512.000000 512.000000"
 preserveAspectRatio="xMidYMid meet">
<metadata>
Created by potrace 1.11, written by Peter Selinger 2001-2013
</metadata>
<g transform="translate(0.000000,512.000000) scale(0.100000,-0.100000)"
fill="#000000" stroke="none">
<path d="M1455 5114 c-365 -47 -641 -165 -901 -385 -297 -252 -500 -640 -543
-1037 -12 -110 -14 -2032 -2 -2172 5 -68 8 -75 29 -78 12 -2 22 2 22 9 0 17
119 4 134 -15 6 -8 20 -16 31 -18 21 -3 33 -11 66 -41 10 -9 23 -17 29 -17 5
0 10 -4 10 -8 0 -5 12 -15 27 -23 15 -8 43 -29 61 -47 19 -18 37 -30 40 -28 3
3 23 -12 45 -34 21 -22 42 -40 46 -40 3 0 35 -27 71 -60 36 -33 68 -60 73 -60
4 0 15 -8 25 -18 38 -36 188 -152 197 -152 5 0 23 -11 41 -25 18 -14 35 -25
38 -25 3 0 40 -24 83 -53 72 -49 180 -106 328 -171 62 -28 277 -96 301 -96 8
0 14 -4 14 -8 0 -11 159 -40 289 -53 58 -5 109 -12 113 -15 8 -5 240 -31 488
-54 63 -6 203 -23 310 -37 187 -24 234 -28 400 -38 75 -4 155 -15 260 -36 30
-6 70 -13 88 -15 18 -3 59 -11 90 -19 31 -8 68 -15 84 -15 15 0 29 -4 33 -9 3
-5 30 -13 60 -16 30 -4 60 -13 66 -21 6 -8 22 -14 35 -14 13 0 35 -11 50 -25
15 -14 29 -25 31 -25 21 0 212 104 300 161 144 97 334 285 426 424 113 171
196 365 237 554 39 175 41 278 37 1386 -4 1197 0 1124 -78 1368 -157 489 -533
866 -1024 1026 -243 79 -174 75 -1420 77 -610 1 -1123 0 -1140 -2z m1880 -522
c432 -93 789 -331 1027 -686 141 -212 227 -450 258 -716 12 -104 8 -1285 -4
-1330 -6 -21 2 -37 47 -93 111 -139 174 -310 184 -497 13 -252 -73 -481 -247
-660 -296 -305 -763 -359 -1116 -129 l-77 50 -96 -18 c-87 -16 -160 -18 -761
-18 -739 0 -730 -1 -946 70 -224 74 -433 198 -601 358 -244 234 -398 510 -474
852 -22 96 -23 123 -27 710 -4 666 0 740 49 932 166 648 712 1119 1389 1196
19 3 319 3 665 2 601 -2 635 -3 730 -23z"/>
<path d="M3650 3988 c-50 -26 -90 -89 -90 -143 0 -54 40 -117 90 -142 24 -13
58 -23 75 -23 17 0 51 10 75 23 50 25 90 88 90 142 0 17 -10 51 -22 75 -26 50
-89 90 -143 90 -17 0 -51 -10 -75 -22z"/>
<path d="M2416 3570 c-274 -43 -513 -186 -676 -401 -307 -408 -269 -976 91
-1340 132 -134 293 -225 488 -276 80 -21 119 -25 236 -25 155 -1 230 12 365
61 149 55 283 143 391 258 289 309 358 768 174 1149 -168 348 -503 566 -890
579 -66 2 -147 0 -179 -5z m344 -380 c114 -38 180 -80 271 -170 70 -70 94
-102 128 -172 95 -196 95 -404 0 -598 -59 -120 -179 -240 -299 -299 -198 -97
-419 -95 -613 6 -108 56 -231 182 -286 293 -95 195 -95 406 1 600 33 68 59
102 127 170 92 91 161 134 271 169 93 29 103 30 225 26 79 -2 128 -9 175 -25z"/>
<path d="M3928 1714 c-15 -8 -32 -23 -38 -34 -6 -11 -10 -139 -10 -337 l0
-318 -88 88 c-81 81 -90 87 -128 87 -54 0 -89 -35 -89 -91 0 -37 8 -47 165
-204 90 -90 177 -169 192 -176 51 -21 77 -4 253 171 165 165 170 170 170 211
0 54 -38 89 -95 89 -34 0 -49 -9 -112 -65 l-73 -65 -5 298 c-5 318 -7 328 -57
351 -32 14 -52 13 -85 -5z"/>
</g>
</svg>
